<?xml version="1.0" encoding="UTF-8"?>
<!DOCTYPE svg PUBLIC "-//W3C//DTD SVG 1.1//EN" "http://www.w3.org/Graphics/SVG/1.1/DTD/svg11.dtd">
<!-- Creator: CorelDRAW 2021 (64-Bit) -->
<svg xmlns="http://www.w3.org/2000/svg" xml:space="preserve" width="0.106665in" height="0.106665in" version="1.1" style="shape-rendering:geometricPrecision; text-rendering:geometricPrecision; image-rendering:optimizeQuality; fill-rule:evenodd; clip-rule:evenodd"
viewBox="0 0 1.59 1.59"
 xmlns:xlink="http://www.w3.org/1999/xlink"
 xmlns:xodm="http://www.corel.com/coreldraw/odm/2003">
 <defs>
  <style type="text/css">
   <![CDATA[
    .fil0 {fill:black}
   ]]>
  </style>
 </defs>
 <g id="Layer_x0020_1">
  <metadata id="CorelCorpID_0Corel-Layer"/>
  <path class="fil0" d="M0.65 0.34c0,0.07 -0.01,0.14 -0.03,0.2 -0.01,0.03 -0.02,0.05 -0.03,0.08 -0.02,0.03 -0.03,0.04 -0.06,0.07 0,-0.16 -0.08,-0.26 -0.23,-0.34 0,0.06 0.04,0.1 -0.05,0.24 -0.08,0.14 -0.26,0.27 -0.26,0.46 0,0.17 0.11,0.34 0.27,0.43 0.04,0.02 0.12,0.07 0.17,0.08 -0.07,-0.12 -0,-0.3 0.05,-0.39 0.04,-0.07 0.18,-0.23 0.27,-0.26 -0.04,0.13 0.05,0.27 0.15,0.33 -0,-0.04 -0.02,-0.06 0,-0.12 0.01,-0.02 0.02,-0.03 0.04,-0.05 0.05,0.17 0.19,0.2 0.23,0.36 0.02,0.07 -0,0.09 -0.02,0.16 0.24,-0.05 0.43,-0.28 0.43,-0.49 0,-0.25 -0.21,-0.39 -0.21,-0.62 0,-0.03 0.01,-0.03 0.01,-0.06 -0.11,0.01 -0.2,0.06 -0.26,0.14 -0.01,0.01 -0,0.01 -0.01,0.02 -0.01,0.02 -0,0.01 -0.01,0.02 0,-0.28 -0.15,-0.45 -0.41,-0.56 -0.03,-0.01 -0.09,-0.03 -0.11,-0.04 0.04,0.13 0.06,0.19 0.06,0.34z"/>
 </g>
</svg>
