<?xml version="1.0" encoding="UTF-8"?>
<!DOCTYPE svg PUBLIC "-//W3C//DTD SVG 1.1//EN" "http://www.w3.org/Graphics/SVG/1.1/DTD/svg11.dtd">
<!-- Creator: CorelDRAW 2021 (64-Bit) -->
<svg xmlns="http://www.w3.org/2000/svg" xml:space="preserve" width="0.106665in" height="0.106665in" version="1.1" style="shape-rendering:geometricPrecision; text-rendering:geometricPrecision; image-rendering:optimizeQuality; fill-rule:evenodd; clip-rule:evenodd"
viewBox="0 0 106.67 106.67"
 xmlns:xlink="http://www.w3.org/1999/xlink"
 xmlns:xodm="http://www.corel.com/coreldraw/odm/2003">
 <defs>
  <style type="text/css">
   <![CDATA[
    .fil0 {fill:black}
   ]]>
  </style>
 </defs>
 <g id="Layer_x0020_1">
  <metadata id="CorelCorpID_0Corel-Layer"/>
  <g id="_1938841393648">
   <path class="fil0" d="M34.2 103.18c27.26,10.46 58.52,-3.45 68.98,-30.71 10.46,-27.26 -3.45,-58.52 -30.71,-68.98 -27.26,-10.46 -58.52,3.45 -68.98,30.71 -10.46,27.26 3.45,58.52 30.71,68.98zm53.34 -28.34c-10.06,16.03 -30.35,23.25 -48.68,16.21 -18.34,-7.04 -28.59,-25.98 -25.33,-44.62l74.01 28.41zm-27.45 -27.29c0.65,3.03 3.11,5.52 7.02,4.7 0.81,-0.17 1.58,-0.57 2.29,-1.13l23.74 9.11c3.26,-18.64 -7,-37.58 -25.33,-44.62 -18.33,-7.04 -38.63,0.18 -48.68,16.21l40.96 15.72z"/>
   <path class="fil0" d="M60.08 47.55c0.65,3.03 3.11,5.52 7.02,4.7 0.81,-0.17 1.58,-0.57 2.29,-1.13l-9.31 -3.57z"/>
  </g>
 </g>
</svg>
