<?xml version="1.0" encoding="UTF-8"?>
<!DOCTYPE svg PUBLIC "-//W3C//DTD SVG 1.1//EN" "http://www.w3.org/Graphics/SVG/1.1/DTD/svg11.dtd">
<!-- Creator: CorelDRAW 2021 (64-Bit) -->
<svg xmlns="http://www.w3.org/2000/svg" xml:space="preserve" width="0.106665in" height="0.106665in" version="1.1" style="shape-rendering:geometricPrecision; text-rendering:geometricPrecision; image-rendering:optimizeQuality; fill-rule:evenodd; clip-rule:evenodd"
viewBox="0 0 106.66 106.66"
 xmlns:xlink="http://www.w3.org/1999/xlink"
 xmlns:xodm="http://www.corel.com/coreldraw/odm/2003">
 <defs>
  <style type="text/css">
   <![CDATA[
    .fil0 {fill:black}
    .fil1 {fill:#E6E6E6}
   ]]>
  </style>
 </defs>
 <g id="Layer_x0020_1">
  <metadata id="CorelCorpID_0Corel-Layer"/>
  <g id="_1939338717728">
   <path class="fil0" d="M18.48 92.9c0,8.93 46.76,20.13 51.58,9.31 2.2,-4.94 -1.83,-1.74 4.2,-9.31 10.02,0 16.14,0.89 17.76,-6.24 1.65,-7.28 1.98,-3.78 3.85,-7.39 2.63,-5.09 -2.43,-0.35 2.69,-6.76 -0.72,-2.59 -2.25,-4.65 -3.6,-6.8 4.79,-1.93 11.7,-2.68 11.7,-6.8 0,-2.54 -11.81,-10.35 -11.4,-16.51 0.14,-2.11 5.5,-9.96 -2.45,-20.96 -8,-11.05 -23.45,-21.44 -39.24,-21.44 -16.98,0 -26.13,1.22 -38.92,11.89 -17.24,14.38 -19.8,36.79 -4.81,53.51 3.69,4.12 7.54,5.44 9.42,10.98 2.04,6.02 -0.78,10.02 -0.78,16.51z"/>
   <path class="fil1" d="M68.87 30.97c0,1.15 -1.66,4.65 -2.5,5.47 -6.03,5.88 -13.69,-3.15 -17.3,-3.96 -1.09,3.96 -2.27,3.25 -4.5,6.04 2.89,3.62 10.5,7.55 16.2,7.55 2.1,0 7,-3.93 8.15,-5.25 4.16,-4.81 4.68,-13.05 1.75,-18.16l-7.2 0c1.73,2.16 5.4,4.57 5.4,8.31z"/>
   <path class="fil1" d="M14.88 30.21c0,5.74 6,10.22 11.7,11.33 -5.08,-8.06 -1.98,-14.21 5.4,-15.86 -0.97,-3.48 -0.9,-4.68 -0.9,-9.06 -4.88,0.95 -8.09,2.37 -11.19,4.95l-3.18 3.37c-0.42,0.69 -1.82,4.43 -1.82,5.27z"/>
   <path class="fil1" d="M36.48 13.59c15.77,0 19.09,6.4 24.14,6.51 2.98,0.07 4.83,-1.45 9.15,0.29 -0.79,-7.93 -25.16,-16.99 -33.29,-6.8z"/>
   <path class="fil1" d="M33.78 20.39c0,2.84 0.59,1.43 0.9,4.53 10.51,0 8.52,1.7 15.3,3.02 4.67,-7.4 4.75,-1.93 6.3,-6.8 -3.55,-0.8 -10.02,-5.29 -20.7,-5.29 -0.44,0.77 -1.8,3.54 -1.8,4.53z"/>
   <path class="fil1" d="M76.07 30.97c0,8.29 -4.61,12 -9.9,15.86 4.74,0.33 6.28,1.29 10.67,-0.86 9.36,-4.56 5.94,-19.34 -1.68,-21.05 0,3.63 0.9,3.5 0.9,6.04z"/>
   <path class="fil1" d="M40.08 39.27c-6.15,-7.71 -1.44,0.32 -8.1,-11.33 -8.59,4.83 -4.99,14.48 1.15,13.88 3.63,-0.36 4.81,-1.35 6.94,-2.55z"/>
   <path class="fil1" d="M51.77 29.46c10.04,12.58 20.96,1.7 7.2,-6.04 -3.11,1.75 -4.85,3.78 -7.2,6.04z"/>
   <path class="fil1" d="M33.78 44.56c2.5,7.86 18.43,4.59 21.59,4.53l-13.5 -7.55c-3.17,1.78 -3.71,2.16 -8.1,3.02z"/>
   <path class="fil1" d="M41.88 36.25c2.48,-1.39 4.52,-3.3 5.4,-6.04 -4.47,-1.98 -4.65,-3.02 -11.7,-3.02 0.08,3.01 0.44,3.3 1.92,5.18 1.35,1.72 2.44,2.78 4.38,3.88z"/>
  </g>
 </g>
</svg>
