<?xml version="1.0" encoding="UTF-8"?>
<!DOCTYPE svg PUBLIC "-//W3C//DTD SVG 1.1//EN" "http://www.w3.org/Graphics/SVG/1.1/DTD/svg11.dtd">
<!-- Creator: CorelDRAW 2021 (64-Bit) -->
<svg xmlns="http://www.w3.org/2000/svg" xml:space="preserve" width="0.106669in" height="0.106669in" version="1.1" style="shape-rendering:geometricPrecision; text-rendering:geometricPrecision; image-rendering:optimizeQuality; fill-rule:evenodd; clip-rule:evenodd"
viewBox="0 0 3.09 3.09"
 xmlns:xlink="http://www.w3.org/1999/xlink"
 xmlns:xodm="http://www.corel.com/coreldraw/odm/2003">
 <defs>
  <style type="text/css">
   <![CDATA[
    .fil0 {fill:#010101}
    .fil1 {fill:#FCFCFC}
   ]]>
  </style>
 </defs>
 <g id="Layer_x0020_1">
  <metadata id="CorelCorpID_0Corel-Layer"/>
  <g id="_1939064218528">
   <path class="fil0" d="M0.47 1.16c-0.03,0.02 -0.21,0.09 -0.1,0.23 0.08,0.1 0.21,0.05 0.34,0.03 0.23,-0.04 0.51,-0.1 0.74,-0.12 -0.06,0.12 -0.54,0.43 -0.27,0.67 0.07,0.06 0.28,0.14 0.39,0.19 0.07,0.03 0.13,0.06 0.2,0.09 0.06,0.03 0.15,0.06 0.2,0.09 0,0.11 0.02,0.59 0.07,0.66 0.05,0.07 0.17,0.13 0.29,0.07 0.11,-0.05 0.11,-0.13 0.11,-0.26 -0,-0.73 0.08,-0.66 -0.27,-0.85 -0.07,-0.04 -0.21,-0.09 -0.26,-0.14l0.37 -0.36c0.1,-0.1 0.29,-0.27 0.16,-0.46 -0.23,-0.35 -0.91,0 -1.19,0 0.07,-0.04 0.16,-0.22 0.18,-0.33 0.06,-0.43 -0.41,-0.78 -0.91,-0.65 -0.63,0.17 -0.67,0.94 -0.02,1.14z"/>
   <path class="fil0" d="M1.45 2.24c-0.06,-0.04 -0.22,-0.09 -0.33,-0.16 -0.04,-0.03 -0.05,-0.05 -0.08,-0.08 -0.04,0.02 -0.01,-0 -0.03,0.03 -0.01,0.01 -0.02,0.02 -0.03,0.03 -0.17,0.16 -0.37,0.38 -0.54,0.54 -0.12,0.11 -0.32,0.3 -0.1,0.42 0.17,0.09 0.28,-0.03 0.35,-0.09 0.04,-0.04 0.09,-0.07 0.13,-0.11l0.38 -0.34c0.04,-0.04 0.09,-0.07 0.13,-0.11 0.04,-0.04 0.09,-0.08 0.13,-0.12z"/>
   <path class="fil0" d="M2.59 0.19c-0.55,0.11 -0.37,0.79 0.17,0.7 0.55,-0.1 0.37,-0.81 -0.17,-0.7z"/>
   <path class="fil1" d="M0.63 0.27c-0.27,0.02 -0.26,0.21 -0.21,0.28 0.03,0.05 0.1,0.08 0.18,0.11 0.04,0.01 0.07,0.02 0.11,0.04 0.05,0.02 0.07,0.02 0.07,0.08 -0.16,0.05 -0.23,-0.03 -0.34,-0.01 -0.12,0.14 0.04,0.16 0.2,0.17l0.01 0.08c0.14,0.03 0.12,0 0.14,-0.08 0.1,-0.03 0.14,-0.02 0.2,-0.09 0.05,-0.06 0.05,-0.14 0.01,-0.2 -0.03,-0.05 -0.1,-0.08 -0.18,-0.1 -0.06,-0.02 -0.21,-0.05 -0.17,-0.1 0.02,-0.02 0.02,-0.02 0.06,-0.02 0.03,-0 0.06,0 0.08,0.01 0.05,0.01 0.09,0.03 0.15,0.02 0.03,-0.03 0.06,-0.08 0.05,-0.12 -0.04,-0.04 -0.14,-0.05 -0.2,-0.05l-0.01 -0.07 -0.12 -0 -0.01 0.08z"/>
  </g>
 </g>
</svg>
